# xmcd
#
# Track frame offsets: 
#        150
#        20990
#        52837
#        73504
#        99445
#        120691
#        144313
#        166187
#
# Disc length: 2575 seconds
#
# Revision: 1
# Processed by: cddbd v1.5.2PL0 Copyright (c) Steve Scherf et al.
# Submitted via: ExactAudioCopy v1.3
#
DISCID=650a0d08
DTITLE=Level 42 - Level 42
DYEAR=0
DGENRE=Jazz
TTITLE0=Turn It On
TTITLE1="43"
TTITLE2=Why Are You Leaving
TTITLE3=Almost There
TTITLE4=Heathrow
TTITLE5=Love Games
TTITLE6=Dune Tune
TTITLE7=Starchild
EXTD=
EXTT0=
EXTT1=
EXTT2=
EXTT3=
EXTT4=
EXTT5=
EXTT6=
EXTT7=
PLAYORDER=
